<svg width="111" height="115" viewBox="0 0 111 115" fill="none" xmlns="http://www.w3.org/2000/svg">
<path d="M59.661 13.9489L27.4732 22.5736C15.7978 25.702 10.8318 34.3597 13.9705 46.0734L24.6008 85.7466C27.791 97.6523 36.3794 102.513 48.0547 99.3851L80.2426 90.7604C92.1061 87.5815 96.9213 79.1289 93.7312 67.2231L83.1008 27.55C79.9621 15.8362 71.5246 10.77 59.661 13.9489Z" fill="url(#paint0_linear_4621_157299)"/>
<g filter="url(#filter0_f_4621_157299)">
<rect x="37.6348" y="85.5449" width="51.3486" height="43.4826" rx="14" transform="rotate(-105 37.6348 85.5449)" fill="#22B871" fill-opacity="0.35"/>
</g>
<g filter="url(#filter1_b_4621_157299)">
<path d="M89.9286 34.4785H56.6053C44.5181 34.4785 37.4805 41.5559 37.4805 53.6829V94.7555C37.4805 107.081 44.5181 114 56.6053 114H89.9286C102.211 114 109.049 107.081 109.049 94.7555V53.6829C109.049 41.5559 102.211 34.4785 89.9286 34.4785Z" fill="#22B871" fill-opacity="0.5"/>
<path d="M89.9286 33.9785H56.6053C50.4645 33.9785 45.5425 35.7782 42.1558 39.1803C38.7694 42.5821 36.9805 47.5234 36.9805 53.6829V94.7555C36.9805 101.012 38.7684 105.965 42.1566 109.353C45.5448 112.741 50.4675 114.5 56.6053 114.5H89.9286C96.1619 114.5 101.086 112.742 104.45 109.352C107.813 105.962 109.549 101.009 109.549 94.7555V53.6829C109.549 47.5272 107.812 42.5852 104.451 39.1817C101.088 35.7772 96.165 33.9785 89.9286 33.9785Z" stroke="url(#paint1_linear_4621_157299)" stroke-linecap="round" stroke-linejoin="round"/>
</g>
<g filter="url(#filter2_bd_4621_157299)">
<mask id="path-5-inside-1_4621_157299" fill="white">
<path fill-rule="evenodd" clip-rule="evenodd" d="M57.6776 52.9688V53.0085C55.9639 53.0085 54.5763 54.4001 54.5763 56.1098C54.5763 57.8195 55.9639 59.2112 57.6776 59.2112H69.562C71.2757 59.2112 72.6673 57.8195 72.6673 56.0661C72.6673 54.3604 71.2757 52.9688 69.562 52.9688H57.6776ZM88.8499 77.1836H57.6776C55.9639 77.1836 54.5763 75.792 54.5763 74.0823C54.5763 72.3726 55.9639 70.977 57.6776 70.977H88.8499C90.5596 70.977 91.9512 72.3726 91.9512 74.0823C91.9512 75.792 90.5596 77.1836 88.8499 77.1836ZM88.8502 95.3539H57.6779C56.4851 95.513 55.332 94.9165 54.6959 93.9225C54.0597 92.8888 54.0597 91.5767 54.6959 90.5826C55.332 89.5489 56.4851 88.9922 57.6779 89.1115H88.8502C90.4366 89.2705 91.6334 90.6224 91.6334 92.2526C91.6334 93.839 90.4366 95.1949 88.8502 95.3539Z"/>
</mask>
<path fill-rule="evenodd" clip-rule="evenodd" d="M57.6776 52.9688V53.0085C55.9639 53.0085 54.5763 54.4001 54.5763 56.1098C54.5763 57.8195 55.9639 59.2112 57.6776 59.2112H69.562C71.2757 59.2112 72.6673 57.8195 72.6673 56.0661C72.6673 54.3604 71.2757 52.9688 69.562 52.9688H57.6776ZM88.8499 77.1836H57.6776C55.9639 77.1836 54.5763 75.792 54.5763 74.0823C54.5763 72.3726 55.9639 70.977 57.6776 70.977H88.8499C90.5596 70.977 91.9512 72.3726 91.9512 74.0823C91.9512 75.792 90.5596 77.1836 88.8499 77.1836ZM88.8502 95.3539H57.6779C56.4851 95.513 55.332 94.9165 54.6959 93.9225C54.0597 92.8888 54.0597 91.5767 54.6959 90.5826C55.332 89.5489 56.4851 88.9922 57.6779 89.1115H88.8502C90.4366 89.2705 91.6334 90.6224 91.6334 92.2526C91.6334 93.839 90.4366 95.1949 88.8502 95.3539Z" fill="url(#paint2_linear_4621_157299)"/>
<path d="M57.6776 53.0085V53.4085H58.0776V53.0085H57.6776ZM57.6776 52.9688V52.5687H57.2776V52.9688H57.6776ZM57.6779 95.3539V94.9539H57.6514L57.6251 94.9574L57.6779 95.3539ZM88.8502 95.3539V95.7539H88.8702L88.8901 95.7519L88.8502 95.3539ZM54.6959 93.9225L54.3552 94.1322L54.359 94.1382L54.6959 93.9225ZM54.6959 90.5826L55.0328 90.7983L55.0365 90.7923L54.6959 90.5826ZM57.6779 89.1115L57.6381 89.5095L57.658 89.5115H57.6779V89.1115ZM88.8502 89.1115L88.8901 88.7135L88.8702 88.7115H88.8502V89.1115ZM58.0776 53.0085V52.9688H57.2776V53.0085H58.0776ZM54.9763 56.1098C54.9763 54.6207 56.1852 53.4085 57.6776 53.4085V52.6085C55.7427 52.6085 54.1763 54.1796 54.1763 56.1098H54.9763ZM57.6776 58.8112C56.1852 58.8112 54.9763 57.599 54.9763 56.1098H54.1763C54.1763 58.0401 55.7427 59.6112 57.6776 59.6112V58.8112ZM69.562 58.8112H57.6776V59.6112H69.562V58.8112ZM72.2673 56.0661C72.2673 57.602 71.0515 58.8112 69.562 58.8112V59.6112C71.5 59.6112 73.0673 58.0371 73.0673 56.0661H72.2673ZM69.562 53.3688C71.0555 53.3688 72.2673 54.582 72.2673 56.0661H73.0673C73.0673 54.1388 71.496 52.5687 69.562 52.5687V53.3688ZM57.6776 53.3688H69.562V52.5687H57.6776V53.3688ZM57.6776 77.5836H88.8499V76.7836H57.6776V77.5836ZM54.1763 74.0823C54.1763 76.0126 55.7427 77.5836 57.6776 77.5836V76.7836C56.1852 76.7836 54.9763 75.5714 54.9763 74.0823H54.1763ZM57.6776 70.577C55.742 70.577 54.1763 72.1527 54.1763 74.0823H54.9763C54.9763 72.5925 56.1858 71.377 57.6776 71.377V70.577ZM88.8499 70.577H57.6776V71.377H88.8499V70.577ZM92.3512 74.0823C92.3512 72.1524 90.7812 70.577 88.8499 70.577V71.377C90.338 71.377 91.5512 72.5929 91.5512 74.0823H92.3512ZM88.8499 77.5836C90.7805 77.5836 92.3512 76.0129 92.3512 74.0823H91.5512C91.5512 75.5711 90.3387 76.7836 88.8499 76.7836V77.5836ZM57.6779 95.7539H88.8502V94.9539H57.6779V95.7539ZM54.359 94.1382C55.0715 95.2514 56.3707 95.9318 57.7308 95.7504L57.6251 94.9574C56.5995 95.0942 55.5926 94.5817 55.0328 93.7069L54.359 94.1382ZM54.359 90.367C53.6371 91.495 53.6415 92.9724 54.3552 94.1322L55.0365 93.7129C54.4779 92.8051 54.4823 91.6583 55.0328 90.7983L54.359 90.367ZM57.7177 88.7135C56.3749 88.5792 55.0729 89.2067 54.3552 90.373L55.0365 90.7923C55.5912 89.891 56.5953 89.4052 57.6381 89.5095L57.7177 88.7135ZM88.8502 88.7115H57.6779V89.5115H88.8502V88.7115ZM92.0334 92.2526C92.0334 90.4245 90.6885 88.8938 88.8901 88.7135L88.8103 89.5095C90.1848 89.6473 91.2334 90.8203 91.2334 92.2526H92.0334ZM88.8901 95.7519C90.6856 95.5719 92.0334 94.0398 92.0334 92.2526H91.2334C91.2334 93.6383 90.1876 94.8178 88.8103 94.9559L88.8901 95.7519Z" fill="url(#paint3_linear_4621_157299)" mask="url(#path-5-inside-1_4621_157299)"/>
</g>
<defs>
<filter id="filter0_f_4621_157299" x="0.488281" y="0.834717" width="103.004" height="108.567" filterUnits="userSpaceOnUse" color-interpolation-filters="sRGB">
<feFlood flood-opacity="0" result="BackgroundImageFix"/>
<feBlend mode="normal" in="SourceGraphic" in2="BackgroundImageFix" result="shape"/>
<feGaussianBlur stdDeviation="13.5" result="effect1_foregroundBlur_4621_157299"/>
</filter>
<filter id="filter1_b_4621_157299" x="12.4805" y="9.47852" width="121.568" height="129.521" filterUnits="userSpaceOnUse" color-interpolation-filters="sRGB">
<feFlood flood-opacity="0" result="BackgroundImageFix"/>
<feGaussianBlur in="BackgroundImage" stdDeviation="12"/>
<feComposite in2="SourceAlpha" operator="in" result="effect1_backgroundBlur_4621_157299"/>
<feBlend mode="normal" in="SourceGraphic" in2="effect1_backgroundBlur_4621_157299" result="shape"/>
</filter>
<filter id="filter2_bd_4621_157299" x="39.2188" y="37.9688" width="67.7324" height="72.4106" filterUnits="userSpaceOnUse" color-interpolation-filters="sRGB">
<feFlood flood-opacity="0" result="BackgroundImageFix"/>
<feGaussianBlur in="BackgroundImage" stdDeviation="7.5"/>
<feComposite in2="SourceAlpha" operator="in" result="effect1_backgroundBlur_4621_157299"/>
<feColorMatrix in="SourceAlpha" type="matrix" values="0 0 0 0 0 0 0 0 0 0 0 0 0 0 0 0 0 0 127 0" result="hardAlpha"/>
<feOffset dx="5" dy="5"/>
<feGaussianBlur stdDeviation="5"/>
<feColorMatrix type="matrix" values="0 0 0 0 0.359375 0 0 0 0 0.9375 0 0 0 0 0.52125 0 0 0 0.5 0"/>
<feBlend mode="normal" in2="effect1_backgroundBlur_4621_157299" result="effect2_dropShadow_4621_157299"/>
<feBlend mode="normal" in="SourceGraphic" in2="effect2_dropShadow_4621_157299" result="shape"/>
</filter>
<linearGradient id="paint0_linear_4621_157299" x1="43.5652" y1="18.2617" x2="64.1468" y2="95.0732" gradientUnits="userSpaceOnUse">
<stop stop-color="#22B871"/>
<stop offset="1" stop-color="#329D6A"/>
</linearGradient>
<linearGradient id="paint1_linear_4621_157299" x1="48.8731" y1="43.7428" x2="100.46" y2="101.245" gradientUnits="userSpaceOnUse">
<stop stop-color="white" stop-opacity="0.25"/>
<stop offset="1" stop-color="white" stop-opacity="0"/>
</linearGradient>
<linearGradient id="paint2_linear_4621_157299" x1="89.276" y1="60.6273" x2="47.2363" y2="61.8468" gradientUnits="userSpaceOnUse">
<stop stop-color="white"/>
<stop offset="1" stop-color="white" stop-opacity="0.2"/>
</linearGradient>
<linearGradient id="paint3_linear_4621_157299" x1="60.2251" y1="57.9097" x2="87.7702" y2="88.2617" gradientUnits="userSpaceOnUse">
<stop stop-color="white" stop-opacity="0.25"/>
<stop offset="1" stop-color="white" stop-opacity="0"/>
</linearGradient>
</defs>
</svg>
