<svg width="159" height="16" viewBox="0 0 527 101" fill="none"
	xmlns="http://www.w3.org/2000/svg">
	<path d="M526.588 66.4042C525.821 76.8363 521.903 85.041 514.805 91.0366C507.725 97.0138 498.38 100.015 486.782 100.015C474.096 100.015 464.119 95.832 456.842 87.4541C449.576 79.0824 445.931 67.5922 445.931 52.9711V47.0435C445.931 37.7251 447.602 29.4958 450.969 22.3863C454.31 15.2955 459.113 9.83808 465.326 6.04515C471.571 2.24602 478.805 0.340271 487.036 0.340271C498.473 0.340271 507.663 3.33502 514.638 9.31215C521.625 15.314 525.66 23.7228 526.73 34.5633H506.339C505.85 28.2892 504.067 23.7476 501.004 20.9261C497.965 18.1108 493.305 16.7 487.036 16.7C480.241 16.7 475.16 19.0884 471.8 23.859C468.408 28.6295 466.694 36.0421 466.601 46.0845V53.4043C466.601 63.8797 468.204 71.5398 471.453 76.3846C474.696 81.2233 479.802 83.655 486.782 83.655C493.07 83.655 497.78 82.2442 500.886 79.4475C503.968 76.6321 505.757 72.2885 506.221 66.4042H526.588ZM410.816 1.70152H431.251V98.6596H410.816V34.2663L371.172 98.6473H350.805V1.70152H371.172V66.2248L410.816 1.70152ZM283.033 42.3348H298.133C308.406 42.1554 313.555 38.1521 313.555 30.2878C313.555 25.907 312.262 22.7452 309.638 20.8209C307.038 18.8842 302.929 17.9313 297.297 17.9313H283.033V42.3348ZM283.033 56.5166V82.566H300.497C305.299 82.566 309.056 81.4522 311.748 79.2247C314.44 76.9972 315.783 73.9035 315.783 69.9744C315.783 61.1263 311.098 56.6527 301.722 56.5166H283.033ZM262.641 98.6535V1.70152H297.297C309.31 1.70152 318.426 3.94758 324.62 8.47683C330.84 12.9751 333.947 19.5834 333.947 28.2892C333.947 33.0412 332.691 37.2487 330.19 40.8622C327.702 44.4695 324.249 47.1363 319.793 48.8131C324.874 50.063 328.866 52.5628 331.787 56.3371C334.714 60.1115 336.175 64.7212 336.175 70.1786C336.175 79.497 333.13 86.5383 327.084 91.3398C321.006 96.129 312.355 98.5606 301.122 98.6535H262.641ZM193.291 48.3367H211.491C216.876 48.3367 220.979 47.0868 223.832 44.6118C226.666 42.1368 228.077 38.5852 228.077 33.9693C228.077 29.2235 226.641 25.3873 223.788 22.4544C220.935 19.5215 216.987 18.018 211.956 17.9313H193.291V48.3367ZM193.291 64.5603V98.6535H172.893V1.70152H211.491C218.918 1.70152 225.459 3.04421 231.097 5.70483C236.735 8.36546 241.067 12.1584 244.106 17.0651C247.144 21.9718 248.648 27.5653 248.648 33.8332C248.648 43.3372 245.337 50.8365 238.703 56.3371C232.069 61.8131 222.885 64.5665 211.145 64.5665H193.291V64.5603ZM154.135 56.5166H114.998V82.566H160.93V98.6535H94.612V1.70152H160.788V17.9313H114.998V40.9736H154.135V56.5166ZM81.2011 66.4042C80.4337 76.8363 76.5163 85.041 69.4179 91.0366C62.3381 97.0138 52.9932 100.015 41.3956 100.015C28.7088 100.015 18.7326 95.832 11.4548 87.4541C4.19543 79.0824 0.550293 67.5922 0.550293 52.9711V47.0435C0.550293 37.7251 2.22121 29.4958 5.58785 22.3863C8.92974 15.2955 13.726 9.83808 19.9456 6.04515C26.1838 2.24602 33.4184 0.340271 41.6555 0.340271C53.0922 0.340271 62.2762 3.33502 69.257 9.31215C76.2378 15.314 80.2729 23.7228 81.3435 34.5633H60.9518C60.4629 28.2892 58.6743 23.7476 55.6171 20.9261C52.5785 18.1108 47.9184 16.7 41.6555 16.7C34.8541 16.7 29.7732 19.0884 26.4128 23.859C23.0276 28.6295 21.3071 36.0421 21.2143 46.0845V53.4043C21.2143 63.8797 22.8172 71.5398 26.0662 76.3846C29.3091 81.2233 34.4209 83.655 41.3956 83.655C47.6833 83.655 52.3928 82.2442 55.5057 79.4475C58.5877 76.6321 60.37 72.2885 60.8342 66.4042H81.2011Z" fill="#9BA1A6"/>
</svg>
