<svg width="135" height="16" viewBox="0 0 135 16" fill="none"
	xmlns="http://www.w3.org/2000/svg">
	<path d="M30.4552 0.312058C29.4399 0.0911402 28.4025 -0.0193174 27.3652 0.00277442C27.3652 0.00277442 23.9661 0.0469566 23.5909 0.0911402C22.3107 0.223691 20.4787 0.731799 19.1765 2.03521C19.0882 2.12358 10.7229 10.7394 10.6788 10.7615C10.1049 11.2475 9.7297 11.5347 9.22204 11.5347H5.55811C4.47659 11.5347 4.91802 10.1871 4.91802 10.1871C5.44775 8.11045 5.66847 7.22679 6.04369 6.18847C6.44099 5.06179 7.69908 4.39904 10.3919 4.39904C12.599 4.39904 13.9675 4.99551 14.4531 5.37108C15.3139 4.4874 16.6823 3.11771 17.499 2.25613C16.9693 1.72593 15.7774 0.0469539 12.2018 0.0469539H8.73646C5.05046 0.0469539 2.73291 2.25613 2.13697 4.44322C1.76174 5.76872 0.636078 10.0766 0.216712 11.5789C-0.62202 14.5834 1.18787 15.467 2.00453 15.6879C3.01984 15.9089 4.05722 16.0193 5.0946 15.9972C5.0946 15.9972 8.49367 15.953 8.8689 15.9089C10.1491 15.7763 11.981 15.2682 13.2833 13.9648L19.9269 7.13842C20.9864 6.05592 21.7368 5.26061 21.781 5.23852C22.3548 4.7525 22.73 4.46531 23.2377 4.46531H26.9016C27.9832 4.46531 27.5417 5.81291 27.5417 5.81291C27.012 7.88954 26.7913 8.77321 26.4161 9.81153C26.0188 10.9382 24.7607 11.601 22.0679 11.601C19.8607 11.601 18.4922 11.0045 18.0067 10.6289C17.1459 11.5126 15.7774 12.8823 14.9607 13.7439C15.4905 14.2741 16.6823 15.953 20.258 15.953H23.7233C27.4093 15.953 29.7268 13.7439 30.3228 11.5568C30.698 10.2313 31.8237 5.92337 32.243 4.44322C33.0818 1.39455 31.2939 0.532976 30.4552 0.312058Z" fill="#003dff"/>
	<path d="M107.678 11.3728H94.7263L93.5645 15.6973H108.087C109.442 15.6973 110.841 15.6973 111.422 13.5458C111.96 11.717 112.842 8.29617 112.842 8.29617C113.143 7.04831 112.132 5.86499 110.755 5.86499H100.514C100.514 5.86499 100.836 4.61712 100.88 4.53106H113.853L115.036 0.185059H100.514C99.1368 0.185059 97.7599 0.18506 97.0714 2.68079C96.8993 3.2832 95.8235 7.30649 95.5438 8.29617C95.0705 10.0819 96.4259 10.1034 97.8244 10.1034H108.001L107.678 11.3728Z" fill="#003dff"/>
	<path d="M94.6405 2.72369C95.329 0.292509 93.9305 0.163423 92.5536 0.184938H80.7419C79.365 0.184938 77.988 0.184934 77.321 2.70218C76.9768 3.95004 75.2556 10.3184 74.9759 11.4157C74.1153 14.5999 75.105 15.6972 76.5465 15.6972C77.3641 15.6972 76.1807 15.6972 91.0906 15.6972L92.2524 11.4372H79.2789C79.7307 9.73755 80.6989 6.2091 81.1507 4.53094H89.8212L89.4554 5.86487H82.1619C81.0216 10.1248 81.4519 8.5112 81.0216 10.1248C81.7101 10.1248 84.7222 10.1248 89.9072 10.1248C91.2842 10.1248 92.6181 10.1033 93.1345 8.33908C93.7154 6.10153 94.4684 3.39065 94.6405 2.72369Z" fill="#003dff"/>
	<path fill-rule="evenodd" clip-rule="evenodd" d="M116.263 4.61713L113.251 15.7403H117.532L119.06 10.1249H127.601C127.515 10.4046 126.418 14.4709 126.095 15.7403H130.398C130.635 14.8582 134.465 0.765961 134.615 0.185059H130.291L128.763 5.86499H120.222L121.771 0.185059H117.489L116.263 4.61713Z" fill="#003dff"/>
	<path d="M55.5263 0.185059H48.3403C44.3601 0.185059 43.0261 0.206573 41.2404 0.185059C39.885 0.185059 38.4435 0.185055 37.755 2.7023C37.4753 3.75653 34.2911 15.5037 34.2266 15.7188H38.508L40.0356 10.0819H52.8369L53.9988 5.82196H41.1974C41.1974 5.82196 41.4341 4.89682 41.5416 4.48804H54.343C54.7518 3.04654 55.1175 1.73413 55.5263 0.185059Z" fill="#003dff"/>
	<path d="M74.76 2.78819C74.2867 4.59544 73.6198 6.98359 73.3185 8.12388C72.7807 10.3184 71.1025 10.1248 69.7256 10.1248H66.9932C67.0792 10.2323 70.8874 15.5896 70.9734 15.6971H65.358C63.1635 12.8356 62.1953 11.6308 61.9372 11.2651C61.6144 10.8563 61.1626 10.2754 61.4208 9.13509C61.6575 8.25297 62.3029 5.8433 62.3029 5.8433H69.5965C69.5965 5.8433 69.618 5.84331 69.9622 4.50938H61.2487C59.1402 12.2547 58.1936 15.6756 58.1936 15.6756H53.9121C53.9121 15.6756 57.1824 3.56273 57.4406 2.6591C58.1075 0.163372 59.506 0.141856 60.8399 0.163371C62.0017 0.163371 70.1774 0.141856 72.6516 0.163371C74.007 0.184886 75.5131 0.313978 74.76 2.78819Z" fill="#003dff"/>
</svg>
