<svg xmlns="http://www.w3.org/2000/svg" width="159" height="16" fill="none">
  <g clip-path="url(#clip0_515_1794)">
    <path d="M159.095 10.732c-.124 1.686-.757 3.012-1.904 3.981-1.144.966-2.654 1.451-4.528 1.451-2.05 0-3.662-.676-4.838-2.03-1.174-1.353-1.763-3.21-1.763-5.573v-.958c0-1.506.27-2.836.814-3.985.54-1.146 1.316-2.028 2.32-2.641 1.009-.614 2.178-.922 3.508-.922 1.848 0 3.333.484 4.46 1.45 1.129.97 1.781 2.329 1.954 4.081h-3.295c-.079-1.014-.367-1.748-.862-2.204-.491-.455-1.244-.683-2.257-.683-1.098 0-1.919.386-2.462 1.157-.548.771-.825 1.969-.84 3.592v1.183c0 1.693.259 2.931.784 3.714.524.782 1.349 1.175 2.477 1.175 1.016 0 1.777-.228 2.279-.68.498-.455.787-1.157.862-2.108h3.291zM140.388.275h3.302v15.67h-3.302V5.538l-6.406 10.405h-3.291V.275h3.291v10.428L140.388.275zM119.74 6.842h2.44c1.66-.029 2.492-.676 2.492-1.947 0-.708-.209-1.219-.633-1.53-.42-.313-1.084-.467-1.994-.467h-2.305v3.944zm0 2.292v4.21h2.822c.776 0 1.383-.18 1.818-.54.435-.36.652-.86.652-1.495 0-1.43-.757-2.153-2.272-2.175h-3.02zm-3.295 6.81V.275h5.6c1.941 0 3.414.363 4.415 1.095 1.005.727 1.507 1.795 1.507 3.202 0 .768-.203 1.448-.607 2.032-.402.583-.96 1.014-1.68 1.285.821.202 1.466.606 1.938 1.216.473.61.709 1.355.709 2.237 0 1.506-.492 2.644-1.469 3.42-.982.774-2.38 1.167-4.195 1.182h-6.218zm-11.206-8.132h2.941c.87 0 1.533-.202 1.994-.602.458-.4.686-.974.686-1.72 0-.767-.232-1.387-.693-1.861-.461-.474-1.099-.717-1.912-.731h-3.016v4.914zm0 2.622v5.51h-3.296V.275h6.237c1.2 0 2.257.217 3.168.647.911.43 1.611 1.043 2.102 1.836.491.793.734 1.697.734 2.71 0 1.536-.535 2.748-1.607 3.637-1.072.885-2.556 1.33-4.453 1.33h-2.885zm-6.327-1.3h-6.324v4.21h7.422v2.6H89.294V.275h10.693v2.623h-7.399v3.724h6.324v2.512zm-11.785 1.598c-.124 1.686-.757 3.012-1.904 3.981-1.144.966-2.654 1.451-4.528 1.451-2.05 0-3.662-.676-4.838-2.03-1.173-1.353-1.762-3.21-1.762-5.573v-.958c0-1.506.27-2.836.814-3.985.54-1.146 1.315-2.028 2.32-2.641 1.008-.614 2.177-.922 3.508-.922 1.848 0 3.332.484 4.46 1.45 1.128.97 1.78 2.329 1.953 4.081h-3.295c-.079-1.014-.368-1.748-.862-2.204-.491-.455-1.244-.683-2.256-.683-1.099 0-1.92.386-2.463 1.157-.547.771-.825 1.969-.84 3.592v1.183c0 1.693.259 2.931.784 3.714.524.782 1.35 1.175 2.477 1.175 1.016 0 1.777-.228 2.28-.68.498-.455.786-1.157.861-2.108h3.291z" fill="#9BA1A6"/>
    <path d="M66.104 15.944h-3.295V9.222h-6.424v6.722H53.09V.274h3.295v6.347h6.424V.275h3.295v15.669zm-18.542-4.11c0-.61-.221-1.08-.66-1.407-.438-.324-1.229-.669-2.373-1.033-1.142-.36-2.046-.72-2.713-1.068-1.814-.962-2.721-2.26-2.721-3.89 0-.844.243-1.601.73-2.266.484-.664 1.185-1.183 2.096-1.557.91-.371 1.934-.559 3.07-.559 1.143 0 2.159.203 3.05.61.897.404 1.59.977 2.085 1.715.49.742.738 1.58.738 2.52h-3.29c0-.716-.233-1.27-.694-1.672-.461-.396-1.11-.594-1.946-.594-.801 0-1.428.165-1.877.499-.446.335-.668.775-.668 1.323 0 .507.263.936.783 1.282.526.341 1.294.664 2.313.965 1.874.555 3.238 1.238 4.097 2.057.855.82 1.282 1.837 1.282 3.056 0 1.355-.521 2.42-1.57 3.192-1.046.771-2.456 1.157-4.225 1.157-1.233 0-2.35-.22-3.362-.661-1.008-.44-1.78-1.047-2.312-1.815-.529-.767-.795-1.66-.795-2.67h3.306c0 1.726 1.053 2.59 3.163 2.59.78 0 1.395-.155 1.834-.467.438-.312.659-.75.659-1.308zm-11.327-2.7h-6.323v4.209h7.42v2.6H26.618V.276h10.694v2.622h-7.399v3.724h6.323v2.513zM15.557 7.591h2.657c.829 0 1.47-.206 1.923-.617.454-.411.682-.98.682-1.704 0-.738-.217-1.315-.644-1.738-.428-.422-1.084-.635-1.972-.635h-2.646v4.694zm2.623 2.623h-2.623v5.73h-3.295V.274h5.94c1.89 0 3.348.412 4.371 1.239 1.027.826 1.537 1.99 1.537 3.5 0 1.069-.236 1.961-.708 2.674-.472.716-1.185 1.285-2.144 1.707l3.46 6.399v.15h-3.54l-2.998-5.729zM9.564 9.53H3.24v6.414H-.054V.274h10.409v2.623H3.24V6.93h6.323v2.6z" fill="#00AC6F"/>
  </g>
  <defs>
    <clipPath id="clip0_515_1794">
      <path fill="#fff" d="M0 0h159v16H0z"/>
    </clipPath>
  </defs>
</svg>